<?xml version="1.0" encoding="UTF-8" standalone="no"?>
<!-- Created with Inkscape (http://www.inkscape.org/) -->

<svg
   width="1284"
   height="2778"
   viewBox="0 0 339.725 735.0125"
   version="1.1"
   id="svg5"
   sodipodi:docname="logo_splash.svg"
   inkscape:export-filename="logo.png"
   inkscape:export-xdpi="92.891434"
   inkscape:export-ydpi="92.891434"
   inkscape:version="1.2.2 (b0a8486541, 2022-12-01)"
   xmlns:inkscape="http://www.inkscape.org/namespaces/inkscape"
   xmlns:sodipodi="http://sodipodi.sourceforge.net/DTD/sodipodi-0.dtd"
   xmlns="http://www.w3.org/2000/svg"
   xmlns:svg="http://www.w3.org/2000/svg">
  <sodipodi:namedview
     id="namedview7"
     pagecolor="#ffffff"
     bordercolor="#111111"
     borderopacity="1"
     inkscape:pageshadow="0"
     inkscape:pageopacity="0"
     inkscape:pagecheckerboard="1"
     inkscape:document-units="mm"
     showgrid="false"
     inkscape:zoom="0.35355339"
     inkscape:cx="-197.9899"
     inkscape:cy="1093.1871"
     inkscape:window-width="2540"
     inkscape:window-height="1388"
     inkscape:window-x="1928"
     inkscape:window-y="40"
     inkscape:window-maximized="1"
     inkscape:current-layer="layer1"
     inkscape:showpageshadow="2"
     inkscape:deskcolor="#d1d1d1" />
  <defs
     id="defs2" />
  <g
     inkscape:label="Layer 1"
     inkscape:groupmode="layer"
     id="layer1"
     transform="translate(-10.908547,-9.4229307)">
    <path
       style="fill:#000000;stroke:#000000;stroke-width:0.00678164"
       d=""
       id="path2137"
       transform="scale(0.26458333)" />
    <g
       id="g2431"
       transform="translate(2.0325979,6.6643618)">
      <ellipse
         style="fill:#aa0000;stroke:#aa0000;stroke-width:0.0176601"
         id="path1022"
         cx="155.45576"
         cy="365.06708"
         rx="7.1084375"
         ry="6.8033276"
         inkscape:export-filename="C:\Users\denit\Documents\Uni\Logo.png"
         inkscape:export-xdpi="96"
         inkscape:export-ydpi="96" />
      <path
         style="fill:none;stroke:#000000;stroke-width:0.264583px;stroke-linecap:butt;stroke-linejoin:miter;stroke-opacity:1"
         d="m 145.9498,379.11847 c -0.20881,2.59915 -0.32496,5.27007 1.55357,8.17714 2.08384,3.2248 4.66003,4.83759 7.93118,5.23124 0.94661,0.11391 1.86671,0.0786 3.08296,-0.44379 5.49009,-3.3264 0.86277,-6.68851 2.44739,-11.37708 0.86044,-2.03539 2.13757,-3.12827 3.77032,-5.35781 2.27722,-3.10927 1.14251,-4.72594 -2.91042,-2.97657 -4.68709,2.00557 -7.21191,2.97266 -10.45198,2.73983 -0.84729,-0.0609 -1.51506,-0.44098 -2.51261,-0.29243 -1.61949,0.2584 -2.78051,2.71138 -2.91041,4.29947 z"
         id="path15070"
         sodipodi:nodetypes="cssccccscc"
         inkscape:export-filename="C:\Users\denit\Documents\Uni\Logo.png"
         inkscape:export-xdpi="96"
         inkscape:export-ydpi="96" />
      <ellipse
         style="fill:#aa0000;stroke:#aa0000;stroke-width:0.0176601"
         id="path1022-1"
         cx="180.01491"
         cy="377.39868"
         rx="7.1084375"
         ry="6.8033276"
         inkscape:export-filename="C:\Users\denit\Documents\Uni\Logo.png"
         inkscape:export-xdpi="96"
         inkscape:export-ydpi="96" />
      <ellipse
         style="fill:#aa0000;stroke:#aa0000;stroke-width:0.0176601"
         id="path1022-5"
         cx="203.6951"
         cy="365.06024"
         rx="7.1084375"
         ry="6.8033276"
         inkscape:export-filename="C:\Users\denit\Documents\Uni\Logo.png"
         inkscape:export-xdpi="96"
         inkscape:export-ydpi="96" />
      <ellipse
         style="fill:none;fill-opacity:0.854902;stroke:#d4aa00;stroke-width:1;stroke-miterlimit:4;stroke-dasharray:none"
         id="path21050"
         cx="179.08887"
         cy="352.85858"
         rx="11.111444"
         ry="11.17759"
         inkscape:export-filename="C:\Users\denit\Documents\Uni\Logo.png"
         inkscape:export-xdpi="96"
         inkscape:export-ydpi="96" />
      <ellipse
         style="fill:none;fill-opacity:0.854902;stroke:#ff6600;stroke-width:1;stroke-miterlimit:4;stroke-dasharray:none"
         id="path21050-3"
         cx="179.1768"
         cy="352.89062"
         rx="8.7079458"
         ry="8.6755428"
         inkscape:export-filename="C:\Users\denit\Documents\Uni\Logo.png"
         inkscape:export-xdpi="96"
         inkscape:export-ydpi="96" />
      <rect
         style="fill:#c8ab37;fill-opacity:0.854902;stroke:#c8ab37;stroke-width:1.5;stroke-miterlimit:4;stroke-dasharray:none"
         id="rect21573"
         width="11.192246"
         height="0.92409056"
         x="163.80093"
         y="349.94156"
         ry="0.39589944"
         inkscape:export-filename="C:\Users\denit\Documents\Uni\Logo.png"
         inkscape:export-xdpi="96"
         inkscape:export-ydpi="96" />
      <rect
         style="fill:#c8ab37;fill-opacity:0.854902;stroke:#c8ab37;stroke-width:1.5;stroke-miterlimit:4;stroke-dasharray:none"
         id="rect21573-0"
         width="11.192246"
         height="0.92409056"
         x="163.80054"
         y="354.7778"
         ry="0.39589944"
         inkscape:export-filename="C:\Users\denit\Documents\Uni\Logo.png"
         inkscape:export-xdpi="96"
         inkscape:export-ydpi="96" />
      <path
         style="fill:#c8ab37;stroke:#c8ab37;stroke-width:0.264583px;stroke-linecap:butt;stroke-linejoin:miter;stroke-opacity:1"
         d="m 187.22481,348.95598 1.91823,-1.19062"
         id="path22019"
         inkscape:export-filename="C:\Users\denit\Documents\Uni\Logo.png"
         inkscape:export-xdpi="96"
         inkscape:export-ydpi="96" />
      <path
         style="fill:#c8ab37;stroke:#c8ab37;stroke-width:0.264583px;stroke-linecap:butt;stroke-linejoin:miter;stroke-opacity:1"
         d="m 187.22464,356.46447 1.91823,1.19063"
         id="path22019-0"
         inkscape:export-filename="C:\Users\denit\Documents\Uni\Logo.png"
         inkscape:export-xdpi="96"
         inkscape:export-ydpi="96" />
      <path
         style="fill:none;stroke:#c8ab37;stroke-width:2;stroke-linecap:butt;stroke-linejoin:miter;stroke-miterlimit:4;stroke-dasharray:none;stroke-opacity:1"
         d="m 183.35527,343.73046 c -9.19252,-2.44439 -13.80858,3.44644 -13.99072,8.96273 -0.13116,3.97224 3.55943,12.31924 13.29619,9.45889"
         id="path25781"
         sodipodi:nodetypes="csc"
         inkscape:export-filename="C:\Users\denit\Documents\Uni\Logo.png"
         inkscape:export-xdpi="96"
         inkscape:export-ydpi="96" />
      <path
         style="fill:#c8ab37;fill-opacity:1;stroke:#c8ab37;stroke-width:0.264583px;stroke-linecap:butt;stroke-linejoin:miter;stroke-opacity:1"
         d="m 182.34038,361.39179 0.67819,-0.30402 1.02899,1.5084 -1.14592,0.45603 z"
         id="path26281"
         inkscape:export-filename="C:\Users\denit\Documents\Uni\Logo.png"
         inkscape:export-xdpi="96"
         inkscape:export-ydpi="96" />
      <path
         style="fill:#ff6600;fill-opacity:1;stroke:#ff6600;stroke-width:0.264583px;stroke-linecap:butt;stroke-linejoin:miter;stroke-opacity:1"
         d="m 183.40488,343.00699 0.59532,0.30592 -0.93845,1.40147 z"
         id="path26514"
         inkscape:export-filename="C:\Users\denit\Documents\Uni\Logo.png"
         inkscape:export-xdpi="96"
         inkscape:export-ydpi="96" />
      <path
         style="fill:none;stroke:#000000;stroke-width:0.264583px;stroke-linecap:butt;stroke-linejoin:miter;stroke-opacity:1"
         d="m 189.0195,367.48157 c 1.29511,1.49939 2.19814,3.91167 3.41199,9.15727 1.07856,4.66097 0.58202,8.8285 0.26996,11.25216 -1.03248,7.57763 -2.18389,11.13834 -12.1692,11.23083 -10.93794,-0.0451 -11.57973,-3.86266 -12.85197,-12.00009 -0.62581,-4.00275 -0.48487,-7.57281 0.46772,-11.17855 0.76558,-2.8979 2.15085,-5.72945 4.1104,-7.99751 2.12395,-2.45833 4.11638,-0.73774 2.80898,1.32921 -1.3572,2.14569 -2.98481,3.90201 -3.14583,7.08769 -0.19893,3.93546 0.9767,6.55869 1.54962,7.7002 1.14725,1.65127 3.0257,2.57821 6.40343,2.67838 2.58668,-0.0317 5.22316,-0.52926 6.37797,-2.37574 1.23584,-2.33851 1.65069,-3.93031 1.8791,-5.6616 0.34915,-2.64657 -0.081,-5.78957 -1.66474,-8.86705 -1.73812,-3.37758 0.73321,-4.46155 2.55257,-2.3552 z"
         id="path26808"
         sodipodi:nodetypes="ssccsassscccsss"
         inkscape:export-filename="C:\Users\denit\Documents\Uni\Logo.png"
         inkscape:export-xdpi="96"
         inkscape:export-ydpi="96" />
      <path
         style="fill:none;stroke:#000000;stroke-width:0.264583px;stroke-linecap:butt;stroke-linejoin:miter;stroke-opacity:1"
         d="m 163.67689,365.15605 c -0.33307,1.33707 -0.85748,3.12731 -0.0498,3.621 1.46728,0.8969 3.1575,-1.09237 4.38236,-2.72236 2.13177,-3.10603 -0.0946,-3.39957 -1.91823,-2.77812 -1.46483,0.49918 -2.1033,0.61971 -2.41432,1.87948 z"
         id="path45365"
         sodipodi:nodetypes="cscsc"
         inkscape:export-filename="C:\Users\denit\Documents\Uni\Logo.png"
         inkscape:export-xdpi="96"
         inkscape:export-ydpi="96" />
      <path
         style="fill:none;stroke:#000000;stroke-width:0.264583px;stroke-linecap:butt;stroke-linejoin:miter;stroke-opacity:1"
         d="m 211.62695,377.6069 c 0.21024,2.59903 -0.90649,5.8262 -2.71112,7.9787 -2.0598,2.45687 -5.94473,5.29884 -8.42728,4.63593 -2.1311,-0.56907 -2.0528,-2.76417 -1.9254,-4.04874 0.24469,-2.46731 1.56065,-5.15626 0.82682,-7.50755 -0.32339,-1.0362 -2.07476,-3.16868 -3.80338,-5.32473 -0.91969,-1.1471 -0.40115,-3.88605 2.64583,-2.11668 1.51944,0.88234 3.66059,3.25885 5.45797,3.66587 1.64734,0.37304 5.10729,-1.32971 6.11755,-1.1854 1.61949,0.2584 1.69054,2.31439 1.81901,3.9026 z"
         id="path15070-4"
         sodipodi:nodetypes="sasssssscs"
         inkscape:export-filename="C:\Users\denit\Documents\Uni\Logo.png"
         inkscape:export-xdpi="96"
         inkscape:export-ydpi="96" />
      <path
         style="fill:#aa0000;fill-opacity:1;stroke:#aa0000;stroke-width:1;stroke-miterlimit:4;stroke-dasharray:none"
         d="m 154.37848,392.13891 c -1.94384,-0.42574 -3.68932,-1.45186 -5.17952,-3.0449 -2.36413,-2.52726 -3.31086,-5.13109 -3.13085,-8.6109 0.0977,-1.8875 0.39261,-2.98312 1.08699,-4.03752 0.26351,-0.40014 0.7252,-0.89034 1.02597,-1.08933 0.52159,-0.34509 0.59268,-0.35689 1.53904,-0.2556 0.5457,0.0584 1.85539,0.10593 2.91042,0.10562 2.42052,-8e-4 3.30426,-0.22832 7.6819,-1.97838 3.70051,-1.47934 4.50351,-1.6475 5.08597,-1.06503 0.30538,0.30538 0.34288,0.42483 0.26505,0.84445 -0.14497,0.7816 -0.78031,1.82956 -2.14098,3.53147 -1.5625,1.95433 -2.45967,3.29957 -2.75425,4.12977 -0.37739,1.06361 -0.40736,2.79234 -0.0782,4.51229 0.60458,3.15929 0.50023,4.07974 -0.60147,5.30509 -1.52913,1.70076 -3.23594,2.19485 -5.71005,1.65297 z"
         id="path57097"
         inkscape:export-filename="C:\Users\denit\Documents\Uni\Logo.png"
         inkscape:export-xdpi="96"
         inkscape:export-ydpi="96" />
      <path
         style="fill:#aa0000;fill-opacity:1;stroke:#aa0000;stroke-width:1;stroke-miterlimit:4;stroke-dasharray:none"
         d="m 163.72461,368.54657 c -0.26108,-0.21163 -0.309,-0.36445 -0.29212,-0.9316 0.0229,-0.76881 0.39001,-2.40762 0.65893,-2.94133 0.25243,-0.50097 0.62541,-0.72853 1.80818,-1.10321 3.06809,-0.97192 3.58854,0.2686 1.31296,3.12953 -1.43585,1.80519 -2.7081,2.47875 -3.48795,1.84661 z"
         id="path57136"
         inkscape:export-filename="C:\Users\denit\Documents\Uni\Logo.png"
         inkscape:export-xdpi="96"
         inkscape:export-ydpi="96" />
      <path
         style="fill:#aa0000;fill-opacity:1;stroke:#aa0000;stroke-width:1;stroke-miterlimit:4;stroke-dasharray:none"
         d="m 199.98193,389.75673 c -1.33756,-0.70731 -1.57725,-2.43017 -0.80397,-5.77881 0.59195,-2.5634 0.70954,-3.55541 0.54415,-4.59067 -0.20471,-1.28143 -0.57468,-1.90192 -2.88745,-4.84258 -1.41797,-1.80294 -1.63565,-2.29232 -1.33862,-3.00942 0.19809,-0.47824 0.48981,-0.65465 1.0797,-0.65291 0.71995,0.002 1.66089,0.54194 3.5475,2.03519 0.98227,0.77747 2.1586,1.59828 2.61408,1.82402 0.77455,0.38389 0.89443,0.40546 1.85209,0.33328 0.59693,-0.045 1.7891,-0.30109 2.85877,-0.61413 2.25761,-0.66066 2.49195,-0.66838 3.05955,-0.10079 0.51659,0.51659 0.68541,1.05122 0.86399,2.73608 0.36363,3.43074 -0.99117,6.83737 -3.79291,9.53719 -2.97885,2.87049 -5.84609,4.0494 -7.59688,3.12355 z"
         id="path57214"
         inkscape:export-filename="C:\Users\denit\Documents\Uni\Logo.png"
         inkscape:export-xdpi="96"
         inkscape:export-ydpi="96" />
      <path
         style="fill:#aa0000;fill-opacity:1;stroke:#aa0000;stroke-opacity:1"
         d="m 177.15418,398.73013 c -6.28219,-0.7938 -7.96905,-2.91576 -9.21649,-11.59381 -0.99298,-6.90784 0.094,-12.60943 3.32628,-17.44785 1.48821,-2.2277 2.8465,-3.15806 3.6065,-2.47028 0.62652,0.567 0.44469,1.21737 -0.93703,3.35158 -1.96006,3.02752 -2.13934,3.59147 -2.14397,6.74439 -0.004,2.84247 0.34196,4.57162 1.28939,6.44129 1.12862,2.22721 4.03834,3.38737 7.85525,3.13201 3.39166,-0.2269 4.81326,-1.0219 5.95055,-3.32769 1.09791,-2.22596 1.49418,-3.9816 1.49418,-6.61979 0,-2.60049 -0.31953,-4.03814 -1.52426,-6.8579 -0.80642,-1.88746 -0.91668,-2.51056 -0.53247,-3.0091 0.74198,-0.96278 2.38155,0.01 3.4611,2.05262 1.04448,1.97666 2.38451,6.7096 2.86888,10.13274 0.4307,3.04383 -0.0145,9.06368 -0.94598,12.79241 -0.93651,3.74875 -2.83821,5.62458 -6.50353,6.41509 -1.57673,0.34006 -6.23749,0.49311 -8.0484,0.26429 z"
         id="path10387" />
      <path
         style="fill:#c8ab37;stroke:#c8ab37;stroke-width:0.0467722"
         d="m 178.07903,361.68891 c -2.8656,-0.25863 -5.20087,-1.90593 -6.60863,-4.66173 -0.14678,-0.28734 -0.26688,-0.53464 -0.26688,-0.54957 0,-0.0149 0.12459,-0.0272 0.27685,-0.0272 h 0.27684 l 0.21079,0.3867 c 0.35481,0.6509 0.77516,1.20003 1.38688,1.81177 0.32165,0.32166 0.78477,0.72609 1.02915,0.89876 2.24303,1.58472 5.10496,1.96493 7.67002,1.01898 0.56202,-0.20726 1.39821,-0.65152 1.91828,-1.01916 0.52301,-0.36972 1.41198,-1.23843 1.79566,-1.75473 0.82912,-1.11571 1.35371,-2.39082 1.54919,-3.76559 0.10931,-0.76875 0.0764,-2.0587 -0.07,-2.74505 -0.69852,-3.27487 -3.21998,-5.77812 -6.48021,-6.43341 -0.71576,-0.14387 -1.99881,-0.17778 -2.71136,-0.0717 -1.90026,0.28298 -3.48243,1.08497 -4.77173,2.41876 -0.53383,0.55224 -0.85038,0.96137 -1.19845,1.54893 l -0.24245,0.40926 h -0.32027 -0.32027 l 0.1932,-0.38587 c 0.61479,-1.22786 1.60285,-2.35597 2.73703,-3.12497 1.05191,-0.71322 2.363,-1.1928 3.75183,-1.37238 0.73661,-0.0952 2.08582,-0.0969 2.88357,-0.004 0.5139,0.0601 1.72265,0.28072 2.06548,0.37697 0.12248,0.0344 0.10651,0.0823 0.31957,-0.95981 0.0917,-0.44871 0.17201,-0.82105 0.17838,-0.82742 0.0156,-0.0156 0.74629,0.35622 0.80104,0.40765 0.0263,0.0247 0.0155,0.0734 -0.0274,0.12366 -0.0389,0.0456 -0.2525,0.34901 -0.47467,0.67417 l -0.40394,0.59122 0.5015,0.28764 c 0.758,0.43477 1.27845,0.84126 1.97482,1.5424 0.62638,0.63068 1.04942,1.17395 1.44275,1.85283 l 0.20329,0.35088 -0.10396,0.0842 c -0.0928,0.0751 -0.0971,0.0952 -0.04,0.18655 0.0713,0.11413 0.13659,0.1288 0.2167,0.0487 0.068,-0.068 0.23014,0.2826 0.47918,1.03589 0.64663,1.95591 0.60238,4.16301 -0.12136,6.05387 l -0.17054,0.44555 -0.13003,-0.0926 c -0.16449,-0.11713 -0.19539,-0.11603 -0.27395,0.01 -0.067,0.10735 -0.0339,0.15521 0.2057,0.29678 0.0768,0.0454 0.0752,0.0613 -0.0245,0.25725 -0.82576,1.62336 -2.32043,3.14791 -3.85087,3.92787 l -0.32007,0.16312 -0.0692,-0.10176 -0.0692,-0.10176 -0.31231,0.14127 c -0.17178,0.0777 -0.35441,0.14755 -0.40587,0.15522 -0.0514,0.008 -0.35663,0.0795 -0.67819,0.15974 -1.15463,0.28792 -2.60635,0.42171 -3.60146,0.3319 z"
         id="path990" />
      <path
         style="fill:#c8ab37;stroke:#c8ab37;stroke-width:0.0233861"
         d="m 170.43544,353.82538 c -0.0809,-0.58179 -0.0816,-1.29917 -0.002,-1.91182 0.0405,-0.31144 0.004,-0.28063 0.33352,-0.28063 h 0.28751 l -0.031,0.21632 c -0.0679,0.47327 -0.0624,1.82614 0.009,2.11644 0.0128,0.0524 0.0119,0.0526 -0.27845,0.0526 h -0.29132 z"
         id="path2288" />
      <path
         style="fill:#c8ab37;stroke:#c8ab37;stroke-width:0.0233861"
         d="m 178.44152,363.71967 c -2.99479,-0.0996 -5.5931,-1.41072 -7.48807,-3.77846 -0.72028,-0.89998 -1.35139,-2.0052 -1.78632,-3.12826 l -0.13585,-0.35079 -2.52118,-0.0124 c -2.01286,-0.01 -2.54004,-0.0187 -2.61473,-0.0436 -0.40366,-0.13459 -0.69608,-0.43281 -0.79435,-0.81011 -0.0442,-0.16975 -0.0464,-0.5425 -0.004,-0.70076 0.10922,-0.40827 0.46669,-0.75106 0.86239,-0.827 0.0749,-0.0144 0.97155,-0.0274 2.29249,-0.0333 1.19317,-0.005 2.17319,-0.0139 2.17781,-0.019 0.005,-0.005 -9e-4,-0.0673 -0.0122,-0.13801 -0.0113,-0.0707 -0.0271,-0.41277 -0.0351,-0.76005 -0.0132,-0.57511 0.003,-1.00313 0.0534,-1.39664 l 0.0141,-0.11041 -2.24214,-0.007 -2.24214,-0.007 -0.13843,-0.0527 c -0.36968,-0.14066 -0.63103,-0.425 -0.72609,-0.78994 -0.0456,-0.17517 -0.0461,-0.52294 -9.5e-4,-0.69625 0.10348,-0.39726 0.41593,-0.71364 0.80512,-0.81524 0.14065,-0.0367 0.36778,-0.0403 2.63686,-0.0415 l 2.48296,-0.001 0.028,-0.0877 c 0.12384,-0.38779 0.50422,-1.21059 0.78963,-1.70804 2.17173,-3.78514 6.18682,-5.67107 10.98427,-5.15941 0.7609,0.0811 1.73314,0.25394 2.45554,0.4364 l 0.30402,0.0768 -0.005,0.0931 -0.005,0.0931 0.27253,0.14191 c 0.1499,0.0781 0.28376,0.1597 0.29747,0.18145 0.0293,0.0465 0.0352,0.0362 -0.25406,0.4521 -0.5326,0.76588 -0.62138,0.8969 -0.62138,0.91707 0,0.0119 0.16049,0.11299 0.35664,0.22469 0.68799,0.39177 1.10672,0.6961 1.6885,1.22717 0.49744,0.45407 0.9725,0.97469 1.33469,1.46267 0.32134,0.43294 0.72973,1.1112 0.69901,1.16091 -0.0114,0.0185 -0.006,0.0212 0.016,0.008 0.0553,-0.0321 1.14936,-0.71426 1.42964,-0.89132 0.15374,-0.0971 0.2737,-0.1586 0.2878,-0.1475 0.0133,0.0105 0.0468,0.0593 0.0745,0.10857 l 0.0503,0.0895 -0.2679,0.16321 c -0.14735,0.0898 -0.54534,0.33443 -0.88442,0.5437 l -0.6165,0.38049 0.064,0.0686 c 0.12545,0.1343 0.43294,0.98246 0.59608,1.64421 0.19309,0.78321 0.25849,1.35585 0.257,2.25024 -0.002,1.26401 -0.17303,2.18081 -0.6212,3.33175 -0.0624,0.16035 -0.10582,0.29906 -0.0964,0.30823 0.0219,0.0214 0.936,0.5854 1.54541,0.95365 0.0307,0.0185 0.0263,0.0281 -0.10507,0.23212 -0.003,0.005 -0.0945,-0.0481 -0.20358,-0.11693 -0.32618,-0.20587 -0.92284,-0.57909 -1.17781,-0.73675 -0.13136,-0.0812 -0.23276,-0.13187 -0.22535,-0.11256 0.0181,0.0472 -0.0202,0.13829 -0.1865,0.44353 -0.41011,0.75289 -0.95664,1.47161 -1.62766,2.14048 -0.71188,0.7096 -1.33984,1.17792 -2.12433,1.58428 -0.2214,0.11469 -0.32783,0.18194 -0.31665,0.20011 0.0212,0.0345 0.72941,1.06719 0.89166,1.30023 0.0665,0.0956 0.12096,0.18148 0.12096,0.19098 0,0.018 -1.35163,0.55906 -1.39674,0.55906 -0.0143,0 -0.0298,-0.0116 -0.0345,-0.0259 -0.006,-0.017 -0.1683,0.0145 -0.47551,0.0922 -1.38827,0.3511 -2.58055,0.4876 -3.88126,0.44433 z m 0.98868,-2.00095 c -0.0479,-0.005 -0.13209,-0.005 -0.18709,-1.6e-4 -0.055,0.005 -0.0158,0.009 0.0871,0.009 0.1029,1e-4 0.1479,-0.004 0.10001,-0.009 z m 0.32678,-0.0231 c -0.0354,-0.005 -0.0933,-0.005 -0.12862,0 -0.0354,0.005 -0.006,0.01 0.0643,0.01 0.0708,0 0.0997,-0.004 0.0643,-0.01 z m 0.39172,-0.0289 c 0.0937,-0.0146 0.10067,-0.0184 0.0351,-0.019 -0.045,-4.5e-4 -0.13973,0.007 -0.21048,0.017 -0.11199,0.0155 -0.11652,0.0179 -0.0351,0.019 0.0514,6.9e-4 0.14616,-0.007 0.21047,-0.017 z m 0.23971,-0.0406 c -0.0225,-0.006 -0.0593,-0.006 -0.0819,0 -0.0225,0.006 -0.004,0.0107 0.0409,0.0107 0.045,0 0.0634,-0.005 0.0409,-0.0107 z m 0.1637,-0.0234 c -0.0225,-0.006 -0.0593,-0.006 -0.0819,0 -0.0225,0.006 -0.004,0.0107 0.0409,0.0107 0.045,0 0.0634,-0.005 0.0409,-0.0107 z m 0.15246,-0.0226 c -0.0158,-0.006 -0.0474,-0.007 -0.0702,-8.7e-4 -0.0228,0.006 -0.01,0.0112 0.0288,0.0116 0.0386,4.8e-4 0.0572,-0.004 0.0414,-0.0108 z m 0.13987,-0.0235 c -0.0161,-0.006 -0.0424,-0.006 -0.0585,0 -0.0161,0.006 -0.003,0.0118 0.0292,0.0118 0.0322,0 0.0453,-0.005 0.0292,-0.0118 z m 0.12813,-0.022 c -0.008,-0.008 -0.0279,-0.009 -0.0448,-0.002 -0.0187,0.007 -0.0131,0.013 0.0141,0.0141 0.0247,0.001 0.0385,-0.005 0.0307,-0.0123 z m 0.12911,-0.0247 c -0.0161,-0.006 -0.0424,-0.006 -0.0585,0 -0.0161,0.006 -0.003,0.0118 0.0292,0.0118 0.0322,0 0.0453,-0.005 0.0292,-0.0118 z m 0.10475,-0.022 c -0.008,-0.008 -0.0279,-0.009 -0.0448,-0.002 -0.0187,0.007 -0.0131,0.013 0.0141,0.0141 0.0247,10e-4 0.0385,-0.005 0.0307,-0.0123 z m -5.32569,-0.28989 c -0.0193,-0.0125 -0.0456,-0.0227 -0.0585,-0.0227 -0.0129,0 -0.008,0.0102 0.0117,0.0227 0.0193,0.0125 0.0456,0.0227 0.0585,0.0227 0.0129,0 0.008,-0.0102 -0.0117,-0.0227 z m 6.59488,0 c 0.0428,-0.0276 0.006,-0.0276 -0.0585,0 -0.0308,0.0133 -0.0348,0.0205 -0.0117,0.0214 0.0193,7.2e-4 0.0509,-0.009 0.0701,-0.0214 z m -6.71181,-0.0468 c -0.0193,-0.0125 -0.0456,-0.0227 -0.0585,-0.0227 -0.0129,0 -0.008,0.0102 0.0117,0.0227 0.0193,0.0125 0.0456,0.0227 0.0585,0.0227 0.0129,0 0.008,-0.0102 -0.0117,-0.0227 z m -0.14032,-0.0585 c -0.0322,-0.0184 -0.069,-0.0334 -0.0819,-0.0334 -0.0129,0 0.003,0.015 0.0351,0.0334 0.0322,0.0184 0.069,0.0334 0.0819,0.0334 0.0129,0 -0.003,-0.015 -0.0351,-0.0334 z m 4.58368,-0.0924 c 1.31034,-0.1795 2.43443,-0.60099 3.55468,-1.33286 0.63732,-0.41637 1.49191,-1.22961 1.99591,-1.89935 0.82041,-1.09019 1.33639,-2.34925 1.55103,-3.78471 0.0596,-0.39855 0.0595,-1.75342 -2.3e-4,-2.19829 -0.32285,-2.40809 -1.80971,-4.65238 -3.90746,-5.8981 -0.91457,-0.54311 -1.97642,-0.92949 -2.93669,-1.0686 -0.66022,-0.0956 -1.87836,-0.10966 -2.39707,-0.0276 -1.62654,0.25735 -2.9656,0.84473 -4.11163,1.80354 -0.34517,0.28878 -0.96113,0.91464 -1.23042,1.2502 -0.22007,0.27422 -0.47109,0.64652 -0.71308,1.05761 l -0.16139,0.27419 -0.34119,0.007 c -0.18765,0.004 0.45904,0.009 1.43709,0.0123 1.49733,0.004 1.79966,0.0107 1.91366,0.0404 0.60393,0.15731 0.94939,0.70276 0.86144,1.36013 -0.0654,0.48883 -0.4026,0.86666 -0.87224,0.97737 -0.12781,0.0301 -0.46185,0.0354 -2.27212,0.0357 -1.98172,3.2e-4 -2.12229,0.003 -2.12229,0.0401 0,0.0309 0.006,0.0335 0.0281,0.0117 0.0187,-0.0187 0.12057,-0.0281 0.30402,-0.0281 0.15178,0 0.2759,0.003 0.27582,0.006 -7e-5,0.003 -0.0105,0.069 -0.0232,0.14616 -0.0489,0.29735 -0.0729,1.0872 -0.0479,1.57856 0.0134,0.26368 0.031,0.51856 0.0391,0.5664 l 0.0147,0.087 -0.30112,0.007 c -0.16561,0.004 0.66749,0.01 1.85134,0.0124 1.8469,0.004 2.17199,0.0102 2.29009,0.0409 0.43615,0.1136 0.76247,0.4843 0.83303,0.94632 0.0947,0.62032 -0.20284,1.15064 -0.76395,1.36148 -0.13699,0.0515 -0.15411,0.0521 -1.65267,0.0598 -0.83284,0.004 -1.51425,0.0109 -1.51425,0.0148 0,0.004 0.0594,0.1164 0.13197,0.25015 0.41538,0.76546 0.8272,1.31162 1.46615,1.94442 0.69961,0.69286 1.29185,1.12518 2.08519,1.52208 0.89318,0.44686 1.88433,0.74081 2.80633,0.8323 0.14148,0.014 0.28881,0.0299 0.3274,0.0352 0.1695,0.0232 1.34742,-0.009 1.60195,-0.0439 z m -4.74933,0.025 c -0.0238,-0.0219 -0.44239,-0.22411 -0.44239,-0.21366 0,0.014 0.40011,0.21978 0.4307,0.22147 0.0118,6.6e-4 0.017,-0.003 0.0117,-0.008 z m -0.55932,-0.28251 c 0,-0.006 -0.0237,-0.0223 -0.0526,-0.0364 -0.0505,-0.0245 -0.0508,-0.024 -0.007,0.0109 0.0477,0.0382 0.0598,0.0434 0.0598,0.0255 z m -0.11693,-0.0704 c 0,-0.006 -0.0316,-0.0274 -0.0701,-0.0474 -0.088,-0.0455 -0.0933,-0.0257 -0.006,0.0217 0.0735,0.0399 0.076,0.0407 0.076,0.0257 z m -0.23386,-0.13748 c 0,-0.005 -0.0737,-0.0572 -0.1637,-0.11712 -0.09,-0.0599 -0.1637,-0.10373 -0.1637,-0.0975 0,0.0102 0.30657,0.22285 0.32131,0.22285 0.003,0 0.006,-0.004 0.006,-0.008 z m -0.35079,-0.2357 c 0,-0.006 -0.0342,-0.0327 -0.076,-0.0604 l -0.076,-0.0503 0.0702,0.0603 c 0.0719,0.0618 0.0819,0.0679 0.0819,0.0504 z m -0.1637,-0.11566 c 0,-0.005 -0.0184,-0.0233 -0.0409,-0.0409 -0.0371,-0.0291 -0.0379,-0.0283 -0.009,0.009 0.0306,0.039 0.0498,0.0513 0.0498,0.0321 z m -0.11693,-0.0935 c 0,-0.005 -0.0184,-0.0233 -0.0409,-0.0409 -0.0371,-0.0291 -0.0379,-0.0283 -0.009,0.009 0.0306,0.0389 0.0498,0.0513 0.0498,0.0321 z m -0.0935,-0.0689 c 0,-0.004 -0.0289,-0.0331 -0.0643,-0.0643 l -0.0643,-0.0567 0.0567,0.0643 c 0.053,0.0601 0.0719,0.075 0.0719,0.0567 z m -0.14032,-0.11693 c 0,-0.004 -0.0289,-0.0331 -0.0643,-0.0643 l -0.0643,-0.0567 0.0567,0.0643 c 0.053,0.0601 0.0719,0.075 0.0719,0.0567 z m -0.28063,-0.26133 c -0.0568,-0.0579 -0.10855,-0.10523 -0.11498,-0.10523 -0.006,0 0.0348,0.0474 0.0916,0.10523 0.0568,0.0579 0.10855,0.10524 0.11497,0.10524 0.006,0 -0.0348,-0.0473 -0.0916,-0.10524 z m -0.37418,-0.3698 c 0,-0.004 -0.0342,-0.0382 -0.076,-0.076 l -0.076,-0.0687 0.0687,0.076 c 0.064,0.0708 0.0833,0.0867 0.0833,0.0687 z m -0.25725,-0.28214 c 0,-0.005 -0.0184,-0.0233 -0.0409,-0.0409 -0.0371,-0.0291 -0.0379,-0.0283 -0.009,0.009 0.0306,0.039 0.0497,0.0513 0.0497,0.0321 z m -2.39198,-5.78475 c -0.005,-0.0356 -0.01,-0.012 -0.0101,0.0523 -1.6e-4,0.0643 0.004,0.0934 0.01,0.0646 0.006,-0.0288 0.006,-0.0814 2.7e-4,-0.11693 z m -10e-4,-0.73699 c -0.006,-0.0161 -0.0118,-0.003 -0.0118,0.0292 0,0.0322 0.005,0.0453 0.0118,0.0292 0.006,-0.0161 0.006,-0.0424 0,-0.0585 z m 2.10096,-5.34956 c 0.0233,-0.0257 0.0371,-0.0468 0.0306,-0.0468 -0.006,0 -0.0307,0.0211 -0.054,0.0468 -0.0233,0.0257 -0.0371,0.0468 -0.0306,0.0468 0.006,0 0.0307,-0.021 0.054,-0.0468 z m 0.15201,-0.1754 c 0.0436,-0.045 0.0741,-0.0819 0.0676,-0.0819 -0.006,0 -0.0474,0.0368 -0.091,0.0819 -0.0436,0.045 -0.0741,0.0818 -0.0676,0.0818 0.006,0 0.0474,-0.0368 0.091,-0.0818 z m 0.31571,-0.3391 c 0.0893,-0.09 0.15718,-0.1637 0.15075,-0.1637 -0.006,0 -0.0848,0.0737 -0.17414,0.1637 -0.0893,0.09 -0.15718,0.16371 -0.15075,0.16371 0.006,0 0.0848,-0.0737 0.17414,-0.16371 z m 0.32887,-0.30986 0.0687,-0.076 -0.076,0.0687 c -0.0709,0.064 -0.0868,0.0833 -0.0687,0.0833 0.004,0 0.0382,-0.0342 0.076,-0.076 z m 0.17691,-0.15201 c 0.0291,-0.0371 0.0283,-0.0379 -0.009,-0.009 -0.039,0.0305 -0.0514,0.0497 -0.0321,0.0497 0.005,0 0.0233,-0.0184 0.0409,-0.0409 z m 8.80724,-1.657 c -0.008,-0.008 -0.0279,-0.009 -0.0448,-0.002 -0.0187,0.007 -0.0131,0.013 0.0141,0.0141 0.0247,0.001 0.0385,-0.005 0.0307,-0.0123 z m -0.11693,-0.0234 c -0.008,-0.008 -0.0279,-0.009 -0.0448,-0.002 -0.0186,0.007 -0.0131,0.013 0.0141,0.0141 0.0247,10e-4 0.0385,-0.005 0.0307,-0.0123 z m -0.12814,-0.0247 c -0.0161,-0.006 -0.0424,-0.006 -0.0585,0 -0.0161,0.006 -0.003,0.0118 0.0292,0.0118 0.0322,0 0.0453,-0.005 0.0292,-0.0118 z m -5.04019,-0.022 c -0.008,-0.008 -0.0279,-0.009 -0.0448,-0.002 -0.0186,0.007 -0.0131,0.013 0.0141,0.0141 0.0247,10e-4 0.0385,-0.005 0.0307,-0.0123 z m 4.92326,-10e-4 c -0.0161,-0.006 -0.0424,-0.006 -0.0585,0 -0.0161,0.006 -0.003,0.0118 0.0292,0.0118 0.0322,0 0.0453,-0.005 0.0292,-0.0118 z m -0.11649,-0.0232 c -0.0158,-0.006 -0.0474,-0.007 -0.0702,-8.7e-4 -0.0228,0.006 -0.01,0.0112 0.0288,0.0117 0.0386,4.7e-4 0.0572,-0.004 0.0414,-0.0108 z m -4.59629,-0.0222 c -0.008,-0.008 -0.0279,-0.009 -0.0448,-0.002 -0.0187,0.007 -0.0131,0.013 0.0141,0.0141 0.0247,10e-4 0.0385,-0.005 0.0307,-0.0123 z m 4.41461,-0.009 c -0.0386,-0.01 -0.0965,-0.0179 -0.12862,-0.0179 -0.0522,0 -0.0509,0.002 0.0117,0.0179 0.0386,0.01 0.0965,0.0179 0.12863,0.0179 0.0521,0 0.0509,-0.002 -0.0117,-0.0179 z m -4.29768,-0.0141 c -0.008,-0.008 -0.0279,-0.009 -0.0448,-0.002 -0.0187,0.007 -0.0131,0.013 0.0141,0.0141 0.0247,10e-4 0.0385,-0.005 0.0307,-0.0123 z m 4.05797,-0.0247 c -0.0161,-0.006 -0.0424,-0.006 -0.0585,0 -0.0161,0.006 -0.003,0.0118 0.0292,0.0118 0.0322,0 0.0453,-0.005 0.0292,-0.0118 z m -3.80073,-0.022 c -0.008,-0.008 -0.0279,-0.009 -0.0448,-0.002 -0.0187,0.007 -0.0131,0.013 0.0141,0.0141 0.0247,10e-4 0.0385,-0.005 0.0307,-0.0123 z m 3.66041,-10e-4 c -0.0161,-0.006 -0.0424,-0.006 -0.0585,0 -0.0161,0.006 -0.003,0.0118 0.0292,0.0118 0.0322,0 0.0453,-0.005 0.0292,-0.0118 z m -0.17588,-0.022 c -0.008,-0.008 -0.0279,-0.009 -0.0448,-0.002 -0.0187,0.007 -0.0131,0.013 0.0141,0.0141 0.0247,0.001 0.0385,-0.005 0.0307,-0.0123 z m -3.18051,-0.0234 c -0.008,-0.008 -0.0279,-0.009 -0.0448,-0.002 -0.0187,0.007 -0.0131,0.013 0.0141,0.0141 0.0247,10e-4 0.0385,-0.005 0.0307,-0.0123 z m 0.21048,-0.0234 c -0.008,-0.008 -0.0279,-0.009 -0.0448,-0.002 -0.0187,0.007 -0.0131,0.013 0.0141,0.0141 0.0247,0.001 0.0385,-0.005 0.0307,-0.0123 z m 2.57247,0 c -0.008,-0.008 -0.0279,-0.009 -0.0448,-0.002 -0.0187,0.007 -0.0131,0.013 0.0141,0.0141 0.0247,0.001 0.0385,-0.005 0.0307,-0.0123 z m -2.26796,-0.026 c -0.0354,-0.005 -0.0933,-0.005 -0.12863,0 -0.0354,0.005 -0.006,0.01 0.0643,0.01 0.0708,0 0.0997,-0.004 0.0643,-0.01 z m 2.02321,2.9e-4 c -0.0288,-0.006 -0.0814,-0.006 -0.11693,-3.1e-4 -0.0355,0.005 -0.012,0.01 0.0523,0.0101 0.0643,1.8e-4 0.0934,-0.004 0.0646,-0.01 z m -0.65732,-0.0383 c -0.25557,-0.0126 -0.60535,-0.0125 -0.86528,1.2e-4 -0.41438,0.0201 -0.39282,0.0212 0.42898,0.0211 0.81632,-1.2e-4 0.84101,-10e-4 0.4363,-0.0212 z m 3.49685,-1.002 c -0.007,-0.0187 -0.013,-0.0131 -0.0141,0.0141 -0.001,0.0247 0.005,0.0385 0.0123,0.0307 0.008,-0.008 0.009,-0.0279 0.002,-0.0448 z m 0.0234,-0.11693 c -0.007,-0.0187 -0.013,-0.0131 -0.0141,0.0141 -0.001,0.0247 0.004,0.0385 0.0123,0.0307 0.008,-0.008 0.009,-0.0279 0.002,-0.0448 z m 0.0229,-0.1184 c -0.006,-0.0161 -0.0118,-0.003 -0.0118,0.0292 0,0.0322 0.005,0.0453 0.0118,0.0292 0.006,-0.0161 0.006,-0.0424 0,-0.0585 z m 0.0916,-0.0746 c 0.0368,0.012 0.0386,0.0101 0.01,-0.0105 -0.0525,-0.0377 -0.0936,-0.0311 -0.0932,0.015 2.6e-4,0.0301 0.005,0.033 0.0194,0.0109 0.0109,-0.0172 0.0382,-0.0238 0.064,-0.0153 z"
         id="path2290" />
      <path
         style="fill:#c8ab37;stroke:#c8ab37;stroke-width:0.0233861"
         d="m 178.17832,363.72313 c -2.47063,-0.16362 -4.59894,-1.09689 -6.31721,-2.77013 -1.17324,-1.14248 -2.08858,-2.54945 -2.72524,-4.18892 l -0.10979,-0.28273 -0.73921,-0.0154 c -0.40656,-0.009 -1.49783,-0.0158 -2.42503,-0.0162 -0.92721,-4.2e-4 -1.7555,-0.01 -1.84065,-0.0207 -0.35157,-0.0454 -0.67535,-0.28573 -0.84437,-0.62683 -0.0975,-0.19669 -0.0985,-0.2014 -0.10768,-0.49665 -0.0104,-0.33483 0.0193,-0.4844 0.13791,-0.69287 0.0871,-0.15306 0.27679,-0.34232 0.43245,-0.43138 0.24308,-0.13908 0.21941,-0.13765 2.59448,-0.15694 l 2.17491,-0.0177 -0.003,-0.0702 c -0.002,-0.0386 -0.0143,-0.30168 -0.028,-0.58465 -0.0243,-0.50246 -0.008,-1.17997 0.0387,-1.56102 l 0.0191,-0.15786 -0.20044,-0.003 c -0.11025,-0.002 -1.12654,-0.01 -2.25843,-0.0175 l -2.05797,-0.0144 -0.20087,-0.0982 c -0.31742,-0.15524 -0.55512,-0.44217 -0.62792,-0.75797 -0.0305,-0.13237 -0.0305,-0.54059 0,-0.67297 0.0643,-0.27872 0.30179,-0.58815 0.55518,-0.7232 0.27658,-0.14742 0.23549,-0.14469 2.17864,-0.14474 0.97162,-2e-5 2.08831,-0.007 2.48153,-0.0154 l 0.71494,-0.0153 0.0413,-0.11909 c 0.0826,-0.23817 0.32169,-0.78234 0.50062,-1.13964 1.14937,-2.29512 3.04014,-4.04137 5.37192,-4.96131 1.08157,-0.4267 2.20297,-0.67453 3.46964,-0.76678 0.54487,-0.0397 1.80288,-0.0157 2.36467,0.0451 0.79945,0.0865 1.77288,0.25763 2.48537,0.43684 0.17719,0.0446 0.32715,0.081 0.33325,0.081 0.006,0 0.0111,0.0454 0.0111,0.10093 0,0.10075 2.6e-4,0.10107 0.14489,0.16955 0.24439,0.11573 0.41637,0.23675 0.41637,0.29299 0,0.0275 -0.0395,0.10347 -0.0877,0.16884 -0.21713,0.29425 -0.79552,1.15186 -0.78659,1.16631 0.005,0.009 0.15967,0.10242 0.3427,0.20798 0.67393,0.38868 1.05648,0.66173 1.57226,1.12219 0.90076,0.80415 1.60676,1.67012 2.08024,2.55157 l 0.0964,0.1794 0.56729,-0.35479 c 0.97266,-0.60832 1.11205,-0.6939 1.13025,-0.6939 0.0326,0 0.14348,0.21293 0.12204,0.23437 -0.0229,0.0229 -0.54635,0.35029 -0.56007,0.35029 -0.008,0 -0.82173,0.49965 -1.08234,0.66427 l -0.10178,0.0643 0.0482,0.0513 c 0.15225,0.16207 0.50397,1.1687 0.66845,1.91315 0.15789,0.71465 0.21162,1.32816 0.19308,2.20502 -0.0244,1.15324 -0.16963,1.90706 -0.58305,3.02585 -0.11913,0.32237 -0.13608,0.38655 -0.10874,0.41183 0.0378,0.0349 0.71552,0.45576 1.15491,0.71711 0.43647,0.25962 0.40648,0.22723 0.3305,0.35688 -0.035,0.0596 -0.0742,0.10841 -0.0872,0.10841 -0.013,0 -0.22041,-0.12491 -0.46089,-0.27758 -0.63369,-0.40228 -1.08614,-0.68125 -1.10492,-0.68125 -0.009,0 -0.0225,0.0289 -0.03,0.0643 -0.0213,0.10065 -0.32463,0.63928 -0.56304,0.99976 -0.38766,0.58614 -0.79049,1.06791 -1.34996,1.61449 -0.65655,0.64142 -1.23918,1.07089 -2.01122,1.48251 -0.1462,0.078 -0.28058,0.15129 -0.29863,0.16298 -0.0258,0.0167 0.0493,0.14094 0.34946,0.57892 0.21024,0.30673 0.43847,0.63607 0.50719,0.73187 0.0687,0.0958 0.12189,0.18997 0.11818,0.20927 -0.0104,0.0539 -1.37119,0.58964 -1.42011,0.55908 -0.0273,-0.0171 -0.17226,0.009 -0.52814,0.0942 -0.86553,0.20777 -1.52192,0.32221 -2.23275,0.38929 -0.47245,0.0446 -1.44586,0.0629 -1.86514,0.0352 z m 1.78329,-2.71266 c 0.92994,-0.0662 1.94689,-0.35784 2.87898,-0.8257 0.68356,-0.34312 1.15839,-0.66038 1.693,-1.13116 1.50365,-1.32416 2.36495,-2.84673 2.72931,-4.82482 0.0526,-0.28567 0.0593,-0.39363 0.0701,-1.13455 0.0155,-1.05645 -0.0135,-1.39173 -0.18114,-2.09273 -0.45095,-1.88615 -1.63117,-3.62347 -3.24565,-4.77769 -0.79833,-0.57074 -1.81752,-1.03059 -2.83381,-1.2786 -0.91282,-0.22276 -2.34346,-0.26978 -3.23897,-0.10646 -1.79041,0.32654 -3.1819,1.03967 -4.40452,2.2573 -0.61877,0.61625 -0.9095,0.98369 -1.33375,1.6857 l -0.23203,0.38394 0.48284,0.0143 c 0.26556,0.008 0.91473,0.0157 1.4426,0.0175 1.04256,0.004 1.11794,0.0113 1.3503,0.13771 0.36241,0.19725 0.57055,0.5432 0.59451,0.9881 0.0142,0.26387 -0.0259,0.46539 -0.13608,0.68366 -0.14294,0.28315 -0.462,0.51957 -0.77912,0.57731 -0.0916,0.0167 -0.75233,0.0253 -1.94427,0.0253 h -1.80549 l -0.0319,0.2397 c -0.0362,0.27248 -0.0446,1.62661 -0.0122,1.96443 l 0.0196,0.20463 0.67025,0.003 c 0.36864,10e-4 1.2341,0.009 1.92324,0.0175 l 1.25299,0.0148 0.20008,0.0992 c 0.41522,0.20582 0.65045,0.59729 0.6495,1.08089 -0.001,0.54634 -0.27084,0.94716 -0.77736,1.15498 -0.12013,0.0493 -0.15402,0.0506 -1.64883,0.062 l -1.52617,0.0117 0.21202,0.37224 c 0.42153,0.74009 0.75062,1.16649 1.4006,1.81476 0.61338,0.61177 1.08832,0.97709 1.75544,1.35027 1.04636,0.58531 2.27252,0.9544 3.42606,1.03129 0.30066,0.02 0.94687,0.0106 1.37978,-0.0202 z"
         id="path2292" />
      <path
         style="fill:#c8ab37;stroke:#c8ab37;stroke-width:0.0233861"
         d="m 177.98549,363.72227 c -0.5806,-0.0507 -1.2582,-0.16613 -1.80073,-0.30667 -3.15097,-0.81626 -5.68556,-3.18621 -7.0265,-6.57008 l -0.13537,-0.34161 -0.22515,-0.0151 c -0.12383,-0.008 -1.23017,-0.0212 -2.45852,-0.0287 -1.22836,-0.007 -2.29125,-0.0231 -2.362,-0.0349 -0.32658,-0.0541 -0.66202,-0.31762 -0.82275,-0.64633 l -0.0776,-0.15871 v -0.37539 -0.37539 l 0.0902,-0.18256 c 0.15546,-0.31454 0.46268,-0.5641 0.76699,-0.62302 0.0751,-0.0145 0.98763,-0.0328 2.28537,-0.0457 1.18821,-0.0118 2.16447,-0.0256 2.16948,-0.0306 0.005,-0.005 -0.004,-0.26494 -0.019,-0.57762 -0.0222,-0.44911 -0.0219,-0.67947 0.001,-1.09679 0.0161,-0.29054 0.0348,-0.56073 0.0414,-0.60041 l 0.0121,-0.0721 -1.49295,-0.0155 c -0.82113,-0.009 -1.83136,-0.0155 -2.24498,-0.0155 l -0.75202,-2e-5 -0.14834,-0.067 c -0.29146,-0.1316 -0.50732,-0.33867 -0.63718,-0.61122 -0.0716,-0.15033 -0.0724,-0.15614 -0.0724,-0.52619 v -0.37418 l 0.0877,-0.17933 c 0.15862,-0.32451 0.4715,-0.57249 0.78932,-0.62557 0.0707,-0.0118 1.14942,-0.0276 2.39707,-0.0351 1.24765,-0.007 2.35931,-0.0203 2.47036,-0.0286 l 0.20191,-0.015 0.0288,-0.0961 c 0.0499,-0.16687 0.30094,-0.73633 0.50102,-1.13679 0.41824,-0.83703 0.9039,-1.56159 1.50861,-2.25067 2.1199,-2.41568 5.20109,-3.64606 8.77141,-3.5026 0.82125,0.033 1.19929,0.0723 2.03459,0.21156 0.68928,0.11491 1.65941,0.3274 1.72231,0.37724 0.0147,0.0117 0.0217,0.0408 0.0154,0.0648 -0.0208,0.0796 0.0376,0.13758 0.25256,0.25095 0.23504,0.12392 0.33797,0.22038 0.30363,0.28453 -0.0116,0.0217 -0.13523,0.20287 -0.2747,0.4026 -0.32454,0.46473 -0.60227,0.88627 -0.59031,0.89596 0.005,0.004 0.20927,0.12613 0.45365,0.27106 0.69255,0.4107 1.04452,0.67174 1.61752,1.19965 0.36559,0.33683 0.82169,0.82129 1.09541,1.16352 0.22322,0.27909 0.64118,0.90328 0.79499,1.18722 0.0643,0.11873 0.12828,0.21164 0.14216,0.20648 0.0221,-0.008 0.25337,-0.15212 1.38414,-0.86124 0.13807,-0.0866 0.26683,-0.15753 0.28612,-0.15767 0.0361,-2.6e-4 0.14031,0.15964 0.14031,0.21532 0,0.0172 -0.12134,0.10457 -0.26965,0.19415 -0.59558,0.35974 -1.33595,0.81408 -1.39611,0.85676 l -0.0638,0.0453 0.0587,0.093 c 0.14388,0.22792 0.41584,0.99642 0.57005,1.61083 0.19148,0.76291 0.25872,1.33776 0.25884,2.21292 2.3e-4,1.13823 -0.12796,1.95321 -0.45856,2.91709 -0.2723,0.79394 -0.25635,0.73746 -0.21869,0.774 0.0484,0.0469 0.67344,0.43691 1.08781,0.67869 0.19226,0.11218 0.37061,0.22451 0.39634,0.24962 0.0468,0.0456 0.0468,0.0457 -0.003,0.13193 -0.0824,0.14266 -0.10166,0.14427 -0.29323,0.0245 -0.0943,-0.0589 -0.43313,-0.27147 -0.753,-0.47227 -0.31986,-0.20081 -0.594,-0.3651 -0.60918,-0.3651 -0.0152,0 -0.0417,0.0395 -0.059,0.0877 -0.0455,0.1272 -0.32636,0.62321 -0.52831,0.93294 -0.35567,0.54549 -0.7603,1.03841 -1.27315,1.55095 -0.65338,0.65297 -1.31625,1.14667 -2.12298,1.5812 -0.15756,0.0849 -0.28648,0.16292 -0.28648,0.17345 0,0.0208 0.35147,0.54738 0.61662,0.92394 0.30075,0.42709 0.36778,0.53268 0.36081,0.56838 -0.013,0.0668 -1.34338,0.59923 -1.43638,0.57491 -0.0264,-0.007 -0.21537,0.0257 -0.42006,0.0724 -1.00616,0.22958 -1.55821,0.32864 -2.21965,0.3983 -0.41683,0.0439 -1.79911,0.0653 -2.16321,0.0335 z m 2.26366,-2.74577 c 1.43984,-0.18414 2.98845,-0.84744 4.05326,-1.73611 1.47905,-1.23436 2.37401,-2.62618 2.81443,-4.37688 0.14201,-0.5645 0.17777,-0.81412 0.20315,-1.41816 0.0557,-1.32645 -0.0311,-2.07624 -0.35356,-3.05188 -0.32599,-0.98639 -0.76257,-1.78621 -1.43611,-2.63094 -0.2481,-0.31116 -0.94518,-1.00526 -1.26567,-1.26025 -1.12855,-0.89794 -2.54738,-1.50215 -3.96394,-1.68805 -0.38525,-0.0506 -1.57305,-0.0723 -1.95421,-0.0358 -0.92354,0.0885 -2.0078,0.40347 -2.85943,0.83058 -0.79393,0.39817 -1.39809,0.84387 -2.10918,1.55597 -0.59828,0.59913 -0.84757,0.91745 -1.30124,1.66157 -0.1827,0.29966 -0.18987,0.31649 -0.14109,0.33092 0.0283,0.008 0.41973,0.0172 0.86991,0.0197 0.45018,0.002 1.10265,0.0115 1.44994,0.0201 l 0.63142,0.0157 0.1823,0.0868 c 0.4343,0.20675 0.66998,0.59258 0.67095,1.09839 0.001,0.54453 -0.26359,0.94828 -0.75313,1.14903 -0.12229,0.0502 -0.14216,0.0508 -2.01778,0.0624 l -1.89427,0.0117 -0.0192,0.10524 c -0.0268,0.14704 -0.0461,1.91702 -0.0231,2.11644 l 0.0189,0.1637 1.90919,0.016 1.90919,0.016 0.17859,0.0847 c 0.22257,0.10562 0.44671,0.30974 0.54724,0.49835 0.19221,0.36061 0.19596,0.8439 0.009,1.22053 -0.1375,0.2777 -0.48689,0.5356 -0.79366,0.58585 -0.0744,0.0122 -0.5351,0.0222 -1.02387,0.0223 -0.48877,9e-5 -1.13338,0.007 -1.43246,0.0156 l -0.54379,0.0154 0.0969,0.17751 c 0.45055,0.82502 0.84874,1.34671 1.55488,2.03716 0.46128,0.45102 0.75238,0.69452 1.14294,0.95605 1.09983,0.73648 2.39462,1.2046 3.75347,1.35703 0.2949,0.0331 1.54453,0.0115 1.88948,-0.0326 z"
         id="path2294" />
      <path
         style="fill:#c8ab37;stroke:#c8ab37;stroke-width:0.0233861"
         d="m 167.52357,353.80199 c -0.0361,-0.45602 -0.0434,-1.13121 -0.0172,-1.58441 0.0153,-0.26368 0.0332,-0.49783 0.0399,-0.52034 0.011,-0.037 0.0524,-0.0409 0.43281,-0.0409 h 0.42063 l -0.0188,0.26309 c -0.0103,0.1447 -0.0175,0.66407 -0.0159,1.15415 l 0.003,0.89106 -0.29523,0.0151 c -0.16237,0.008 -0.34892,0.0151 -0.41454,0.0152 l -0.11931,9e-5 z"
         id="path2296" />
      <path
         style="fill:#c8ab37;stroke:#c8ab37;stroke-width:0.0233861"
         d="m 178.34797,364.50318 c -0.63699,-0.0519 -1.22384,-0.13529 -1.71887,-0.24435 -2.66678,-0.58751 -5.01321,-2.07393 -6.70351,-4.24654 -0.63369,-0.8145 -1.20664,-1.81879 -1.59842,-2.80178 -0.1031,-0.25866 -0.25738,-0.68034 -0.25738,-0.70344 0,-0.0152 0.77257,-0.0111 0.86731,0.005 0.0703,0.0116 0.0888,0.0277 0.11448,0.0991 0.09,0.25073 0.35513,0.85875 0.52669,1.20779 0.79071,1.60863 1.9084,2.97967 3.25059,3.98741 1.26546,0.95014 2.66163,1.54402 4.25626,1.81046 0.73745,0.12322 0.95234,0.13686 1.94105,0.12327 1.29262,-0.0178 1.6395,-0.0633 3.40861,-0.44756 0.15118,-0.0328 0.30657,-0.0597 0.34532,-0.0597 0.14793,0 1.47286,-0.52554 1.47286,-0.58422 0,-0.009 -0.0462,-0.088 -0.10274,-0.17584 l -0.10273,-0.15967 0.28397,-0.16224 c 1.77705,-1.01522 3.25604,-2.56033 4.18304,-4.37004 l 0.12734,-0.2486 0.18509,0.11346 c 0.22292,0.13665 0.2699,0.1417 0.3352,0.036 0.0839,-0.13571 0.0696,-0.16383 -0.15148,-0.29894 -0.11008,-0.0673 -0.20538,-0.13077 -0.21177,-0.14111 -0.006,-0.0103 0.051,-0.17408 0.12741,-0.36387 0.37232,-0.92417 0.62397,-1.94073 0.73382,-2.96433 0.0463,-0.4315 0.0391,-1.7836 -0.0118,-2.20998 -0.14711,-1.23319 -0.40783,-2.16955 -0.94231,-3.38433 -0.0311,-0.0708 -0.03,-0.0768 0.0195,-0.10305 0.0289,-0.0153 0.15485,-0.0941 0.27982,-0.175 0.22201,-0.14377 0.22669,-0.14864 0.20435,-0.21266 -0.0126,-0.036 -0.0479,-0.0968 -0.0784,-0.13511 l -0.0555,-0.0696 -0.25737,0.15729 c -0.14155,0.0865 -0.2664,0.15729 -0.27745,0.15729 -0.0111,-10e-6 -0.0933,-0.13271 -0.18289,-0.2949 -0.87039,-1.57652 -2.20015,-2.96518 -3.74327,-3.90905 -0.16754,-0.10248 -0.3494,-0.20918 -0.40414,-0.2371 -0.0955,-0.0487 -0.0981,-0.0528 -0.0637,-0.1019 0.0813,-0.11613 0.0624,-0.13794 -0.31498,-0.36207 -0.19596,-0.1164 -0.20961,-0.13088 -0.21012,-0.22296 -5.2e-4,-0.0781 -0.009,-0.0821 -0.39972,-0.17667 -0.64964,-0.15741 -1.69345,-0.34245 -2.32511,-0.41218 -0.71538,-0.079 -1.77074,-0.10431 -2.45554,-0.059 -3.62661,0.24015 -6.57577,1.94763 -8.41018,4.86926 -0.23897,0.3806 -0.73514,1.3614 -0.90816,1.79521 -0.0926,0.23216 -0.12757,0.29546 -0.16989,0.30754 -0.0293,0.008 -0.23554,0.0163 -0.45828,0.0175 l -0.40499,0.002 0.0161,-0.0526 c 0.054,-0.17606 0.26621,-0.71764 0.39762,-1.01461 0.45066,-1.01842 1.06399,-1.98404 1.82846,-2.8787 0.29681,-0.34735 0.98732,-1.02752 1.33902,-1.31895 1.72792,-1.43187 3.76554,-2.32275 5.9519,-2.60229 0.93159,-0.1191 1.97561,-0.11905 2.93481,1.6e-4 2.87435,0.35723 5.55138,1.83316 7.43986,4.10185 0.58754,0.70583 1.03159,1.39242 1.46712,2.26845 0.64705,1.30149 1.01695,2.59527 1.17678,4.11595 0.0469,0.44654 0.0399,1.83351 -0.0117,2.28803 -0.16417,1.44811 -0.52825,2.70476 -1.14956,3.96775 -0.825,1.67708 -1.97386,3.06491 -3.46694,4.18811 -0.97078,0.73029 -2.16293,1.3512 -3.32746,1.73305 -0.86656,0.28415 -1.81944,0.47218 -2.75838,0.54432 -0.2838,0.0218 -1.34685,0.0276 -1.57973,0.009 z"
         id="path2298" />
    </g>
  </g>
</svg>
