<?xml version="1.0" encoding="UTF-8" standalone="no"?>
<!-- Created with Inkscape (http://www.inkscape.org/) -->

<svg
   width="70mm"
   height="70mm"
   viewBox="0 0 70 70"
   version="1.1"
   id="svg5"
   sodipodi:docname="logo_variant_dots_cart.svg"
   inkscape:export-filename="C:\Users\denit\Documents\Uni\Flavicon.png"
   inkscape:export-xdpi="96"
   inkscape:export-ydpi="96"
   inkscape:version="1.2.2 (b0a8486541, 2022-12-01)"
   xmlns:inkscape="http://www.inkscape.org/namespaces/inkscape"
   xmlns:sodipodi="http://sodipodi.sourceforge.net/DTD/sodipodi-0.dtd"
   xmlns="http://www.w3.org/2000/svg"
   xmlns:svg="http://www.w3.org/2000/svg">
  <sodipodi:namedview
     id="namedview7"
     pagecolor="#ffffff"
     bordercolor="#111111"
     borderopacity="1"
     inkscape:pageshadow="0"
     inkscape:pageopacity="0"
     inkscape:pagecheckerboard="1"
     inkscape:document-units="mm"
     showgrid="false"
     inkscape:zoom="2.8284271"
     inkscape:cx="187.02974"
     inkscape:cy="110.83899"
     inkscape:window-width="2540"
     inkscape:window-height="1370"
     inkscape:window-x="1928"
     inkscape:window-y="60"
     inkscape:window-maximized="1"
     inkscape:current-layer="layer1"
     inkscape:showpageshadow="2"
     inkscape:deskcolor="#d1d1d1" />
  <defs
     id="defs2" />
  <g
     inkscape:label="Layer 1"
     inkscape:groupmode="layer"
     id="layer1"
     transform="translate(-117.22825,-12.422059)">
    <path
       style="fill:#000000;stroke:#000000;stroke-width:0.00678164"
       d=""
       id="path2137"
       transform="scale(0.26458333)" />
    <path
       id="rect10802-6"
       style="stroke:#000000;stroke-width:0.945665"
       d="m 138.25542,24.885103 h 30.71219 c 0.1627,0 0.3497,0.19601 0.29368,0.40845 l -4.27667,16.21754 c -0.056,0.21245 -0.13098,0.40845 -0.29368,0.40845 h -22.15885 c -0.1627,0 -0.23766,-0.196 -0.29369,-0.40845 l -4.27667,-16.21754 c -0.056,-0.21244 0.13099,-0.40845 0.29369,-0.40845 z"
       sodipodi:nodetypes="sssssssss" />
    <rect
       style="fill:#000000;stroke:#000000;stroke-width:0.617881"
       id="rect12595-0"
       width="15.858714"
       height="1.6405591"
       x="136.26546"
       y="22.045414"
       ry="0.31687209" />
    <rect
       style="fill:#000000;stroke:#000000;stroke-width:0.617881"
       id="rect12595-2-4"
       width="15.858714"
       height="1.6405591"
       x="155.18768"
       y="22.045338"
       ry="0.31687209" />
    <rect
       style="fill:#000000;stroke:#000000;stroke-width:0.876051"
       id="rect12721-1"
       width="1.0735075"
       height="9.7592535"
       x="153.11909"
       y="13.792987"
       ry="0.11382114" />
    <ellipse
       style="fill:#000000;stroke:#000000;stroke-width:0.0176601"
       id="path1022-3"
       cx="128.87653"
       cy="46.607811"
       rx="7.1084375"
       ry="6.8033276"
       inkscape:export-filename="C:\Users\denit\Documents\Uni\Logo.png"
       inkscape:export-xdpi="96"
       inkscape:export-ydpi="96" />
    <path
       style="fill:none;stroke:#000000;stroke-width:0.264583px;stroke-linecap:butt;stroke-linejoin:miter;stroke-opacity:1"
       d="m 119.37057,60.659207 c -0.20881,2.59915 -0.32496,5.27007 1.55357,8.17714 2.08384,3.2248 4.66003,4.83759 7.93118,5.23124 0.94661,0.11391 1.86671,0.0786 3.08296,-0.44379 5.49009,-3.3264 0.86277,-6.68851 2.44739,-11.37708 0.86044,-2.03539 2.13757,-3.12827 3.77031,-5.35781 2.27723,-3.10927 1.14251,-4.72594 -2.91041,-2.97657 -4.68709,2.00557 -7.21191,2.97266 -10.45198,2.73983 -0.84729,-0.0609 -1.51506,-0.44098 -2.51261,-0.29243 -1.61949,0.2584 -2.78051,2.71138 -2.91041,4.29947 z"
       id="path15070-3"
       sodipodi:nodetypes="cssccccscc"
       inkscape:export-filename="C:\Users\denit\Documents\Uni\Logo.png"
       inkscape:export-xdpi="96"
       inkscape:export-ydpi="96" />
    <ellipse
       style="fill:#000000;stroke:#000000;stroke-width:0.0176601"
       id="path1022-1-6"
       cx="153.43567"
       cy="58.939423"
       rx="7.1084375"
       ry="6.8033276"
       inkscape:export-filename="C:\Users\denit\Documents\Uni\Logo.png"
       inkscape:export-xdpi="96"
       inkscape:export-ydpi="96" />
    <ellipse
       style="fill:#000000;stroke:#000000;stroke-width:0.0176601"
       id="path1022-5-8"
       cx="177.11586"
       cy="46.60096"
       rx="7.1084375"
       ry="6.8033276"
       inkscape:export-filename="C:\Users\denit\Documents\Uni\Logo.png"
       inkscape:export-xdpi="96"
       inkscape:export-ydpi="96" />
    <path
       style="fill:none;stroke:#000000;stroke-width:0.264583px;stroke-linecap:butt;stroke-linejoin:miter;stroke-opacity:1"
       d="m 162.44026,49.0223 c 1.29511,1.499397 2.19815,3.911677 3.41199,9.157276 1.07856,4.660969 0.58202,8.8285 0.26996,11.25216 -1.03248,7.57763 -2.18389,11.13834 -12.1692,11.23083 -10.93793,-0.04515 -11.57972,-3.862667 -12.85197,-12.000098 -0.62581,-4.002746 -0.48486,-7.572809 0.46772,-11.178542 0.76559,-2.897902 2.15085,-5.729451 4.11041,-7.99751 2.12394,-2.458331 4.11637,-0.73774 2.80898,1.329204 -1.3572,2.145692 -2.98481,3.902016 -3.14584,7.087696 -0.19893,3.93546 0.97671,6.55869 1.54962,7.7002 1.14726,1.65127 3.02571,2.57821 6.40343,2.67838 2.58668,-0.0317 5.22316,-0.52926 6.37797,-2.37574 1.23584,-2.33851 1.6507,-3.930318 1.8791,-5.6616 0.34916,-2.646577 -0.081,-5.789577 -1.66473,-8.86705 -1.73813,-3.37758 0.7332,-4.461549 2.55256,-2.355206 z"
       id="path26808-2"
       sodipodi:nodetypes="ssccsassscccsss"
       inkscape:export-filename="C:\Users\denit\Documents\Uni\Logo.png"
       inkscape:export-xdpi="96"
       inkscape:export-ydpi="96" />
    <path
       style="fill:none;stroke:#000000;stroke-width:0.264583px;stroke-linecap:butt;stroke-linejoin:miter;stroke-opacity:1"
       d="m 137.09765,46.696787 c -0.33306,1.33707 -0.85747,3.12731 -0.0498,3.621 1.46729,0.8969 3.1575,-1.09237 4.38236,-2.72236 2.13177,-3.10603 -0.0946,-3.39957 -1.91823,-2.77812 -1.46482,0.49918 -2.1033,0.61971 -2.41432,1.87948 z"
       id="path45365-8"
       sodipodi:nodetypes="cscsc"
       inkscape:export-filename="C:\Users\denit\Documents\Uni\Logo.png"
       inkscape:export-xdpi="96"
       inkscape:export-ydpi="96" />
    <path
       style="fill:none;stroke:#000000;stroke-width:0.264583px;stroke-linecap:butt;stroke-linejoin:miter;stroke-opacity:1"
       d="m 185.04772,59.147631 c 0.21024,2.59903 -0.90649,5.8262 -2.71112,7.9787 -2.0598,2.45687 -5.94473,5.29884 -8.42728,4.63593 -2.1311,-0.56907 -2.0528,-2.76417 -1.9254,-4.04874 0.24469,-2.46731 1.56065,-5.15626 0.82682,-7.50755 -0.32339,-1.0362 -2.07476,-3.16868 -3.80338,-5.32473 -0.91969,-1.1471 -0.40115,-3.88605 2.64583,-2.11668 1.51944,0.88234 3.66059,3.25885 5.45797,3.66587 1.64734,0.37304 5.10729,-1.32971 6.11755,-1.1854 1.61949,0.2584 1.69054,2.31439 1.81901,3.9026 z"
       id="path15070-4-3"
       sodipodi:nodetypes="sasssssscs"
       inkscape:export-filename="C:\Users\denit\Documents\Uni\Logo.png"
       inkscape:export-xdpi="96"
       inkscape:export-ydpi="96" />
    <path
       style="fill:#000000;fill-opacity:1;stroke:#000000;stroke-width:1;stroke-miterlimit:4;stroke-dasharray:none"
       d="m 127.79925,73.679647 c -1.94384,-0.42574 -3.68932,-1.45186 -5.17952,-3.0449 -2.36413,-2.52726 -3.31086,-5.13109 -3.13085,-8.6109 0.0977,-1.8875 0.39261,-2.98312 1.08699,-4.03752 0.26351,-0.40014 0.7252,-0.89034 1.02597,-1.08933 0.52159,-0.34509 0.59268,-0.35689 1.53904,-0.2556 0.5457,0.0584 1.85539,0.10593 2.91042,0.10562 2.42052,-8e-4 3.30426,-0.22832 7.6819,-1.97838 3.7005,-1.47934 4.5035,-1.6475 5.08597,-1.06503 0.30538,0.30538 0.34287,0.42483 0.26504,0.84445 -0.14497,0.7816 -0.7803,1.82956 -2.14098,3.53147 -1.56249,1.95433 -2.45966,3.29957 -2.75424,4.12977 -0.37739,1.06361 -0.40736,2.79234 -0.0782,4.51229 0.60458,3.15929 0.50023,4.07974 -0.60147,5.30509 -1.52913,1.70076 -3.23594,2.19485 -5.71005,1.65297 z"
       id="path57097-4"
       inkscape:export-filename="C:\Users\denit\Documents\Uni\Logo.png"
       inkscape:export-xdpi="96"
       inkscape:export-ydpi="96" />
    <path
       style="fill:#000000;fill-opacity:1;stroke:#000000;stroke-width:1;stroke-miterlimit:4;stroke-dasharray:none"
       d="m 137.14538,50.087307 c -0.26109,-0.21163 -0.309,-0.36445 -0.29213,-0.9316 0.0229,-0.76881 0.39001,-2.40762 0.65894,-2.94133 0.25243,-0.50097 0.6254,-0.72853 1.80817,-1.10321 3.06809,-0.97192 3.58854,0.2686 1.31296,3.12953 -1.43585,1.80519 -2.7081,2.47875 -3.48794,1.84661 z"
       id="path57136-5"
       inkscape:export-filename="C:\Users\denit\Documents\Uni\Logo.png"
       inkscape:export-xdpi="96"
       inkscape:export-ydpi="96" />
    <path
       style="fill:#000000;fill-opacity:1;stroke:#000000;stroke-width:1;stroke-miterlimit:4;stroke-dasharray:none"
       d="m 173.40269,71.297461 c -1.33756,-0.70731 -1.57724,-2.43017 -0.80397,-5.77881 0.59195,-2.5634 0.70954,-3.55541 0.54416,-4.59067 -0.20471,-1.28143 -0.57469,-1.90192 -2.88745,-4.84258 -1.41797,-1.80294 -1.63566,-2.29232 -1.33863,-3.00942 0.19809,-0.47824 0.48982,-0.65465 1.0797,-0.65291 0.71995,0.002 1.6609,0.54194 3.5475,2.03519 0.98227,0.77747 2.15861,1.59828 2.61409,1.82402 0.77454,0.38389 0.89442,0.40546 1.85208,0.33328 0.59693,-0.045 1.7891,-0.30109 2.85878,-0.61413 2.2576,-0.66066 2.49195,-0.66838 3.05954,-0.10079 0.51659,0.51659 0.68542,1.05122 0.864,2.73608 0.36363,3.43074 -0.99118,6.83737 -3.79292,9.53719 -2.97885,2.87049 -5.84608,4.0494 -7.59688,3.12355 z"
       id="path57214-1"
       inkscape:export-filename="C:\Users\denit\Documents\Uni\Logo.png"
       inkscape:export-xdpi="96"
       inkscape:export-ydpi="96" />
    <path
       style="fill:#000000;stroke:#000000;stroke-width:1.06066"
       d="m 150.57494,80.270859 c -6.28219,-0.793795 -7.96904,-2.915758 -9.21648,-11.593811 -0.99298,-6.907837 0.094,-12.609422 3.32628,-17.447844 1.48821,-2.227699 2.8465,-3.158062 3.60649,-2.470277 0.62653,0.566996 0.4447,1.217363 -0.93702,3.351572 -1.96007,3.027521 -2.13934,3.59147 -2.14397,6.744393 -0.004,2.842469 0.34195,4.571616 1.28938,6.441287 1.12862,2.227217 4.03834,3.38737 7.85526,3.132015 3.39165,-0.226904 4.81326,-1.0219 5.95054,-3.327691 1.09791,-2.22596 1.49419,-3.981606 1.49419,-6.619787 0,-2.600497 -0.31954,-4.03814 -1.52427,-6.8579 -0.80641,-1.887466 -0.91667,-2.510565 -0.53247,-3.009103 0.74198,-0.962779 2.38156,0.0096 3.46111,2.052619 1.04448,1.976665 2.38451,6.709597 2.86888,10.132745 0.43069,3.043827 -0.0145,9.063672 -0.94598,12.792408 -0.93652,3.748744 -2.83821,5.624576 -6.50353,6.41509 -1.57673,0.340061 -6.23749,0.493104 -8.04841,0.264284 z"
       id="path10387-9" />
  </g>
</svg>
